<svg width="53" height="53" viewBox="0 0 53 53" fill="none" xmlns="http://www.w3.org/2000/svg">
<path d="M5.5 0.5C4.17392 0.5 2.90215 1.02678 1.96447 1.96447C1.02678 2.90215 0.5 4.17392 0.5 5.5V40.5C0.5 41.8261 1.02678 43.0979 1.96447 44.0355C2.90215 44.9732 4.17392 45.5 5.5 45.5H28.225C28.075 44.675 28 43.85 28 43C28 41.3 28.3 39.6 28.875 38H5.5L14.25 26.75L20.5 34.25L29.25 23L34.825 30.425C37.25 28.85 40.1 28 43 28C43.85 28 44.675 28.075 45.5 28.225V5.5C45.5 4.17392 44.9732 2.90215 44.0355 1.96447C43.0979 1.02678 41.8261 0.5 40.5 0.5H5.5ZM40.5 33V40.5H33V45.5H40.5V53H45.5V45.5H53V40.5H45.5V33H40.5Z" fill="#E1E0E1"/>
</svg>
