<svg width="281" height="240" viewBox="0 0 281 240" fill="none" xmlns="http://www.w3.org/2000/svg">
<path d="M73.0596 4.10669C71.4617 3.01901 69.2846 3.43268 68.1969 5.03064L50.4723 31.0708C49.3846 32.6687 49.7983 34.8458 51.3962 35.9335C52.9942 37.0212 55.1713 36.6075 56.259 35.0096L72.0142 11.8628L95.161 27.618C96.7589 28.7057 98.936 28.292 100.024 26.694C101.111 25.0961 100.698 22.919 99.0998 21.8313L73.0596 4.10669ZM218.77 231.205C85.5687 183.528 84.193 57.2102 74.5287 6.3467L67.6518 7.65337C76.988 56.79 78.6124 188.472 216.411 237.795L218.77 231.205Z" fill="#E1E0E1"/>
</svg>
