<svg width="96" height="112" viewBox="0 0 96 112" fill="none" xmlns="http://www.w3.org/2000/svg">
<path fill-rule="evenodd" clip-rule="evenodd" d="M66.2879 9.8332C65.7908 9.33573 64.9389 8.87987 63.736 8.46473V31.8673H87.1394C86.7234 30.6648 86.2676 29.8125 85.7697 29.3154L66.2879 9.8332ZM87.6369 103.57V39.8337H61.7448C60.0847 39.8337 58.6729 39.2539 57.5124 38.0917C56.3494 36.9304 55.7687 35.519 55.7687 33.8589V7.9664H7.9677V103.57H87.6369ZM91.3718 23.6513C92.5318 24.8131 93.5281 26.3896 94.3583 28.3812C95.1882 30.3728 95.6033 32.1997 95.6033 33.8589V105.561C95.6033 107.22 95.0222 108.631 93.8613 109.794C92.6987 110.955 91.2869 111.537 89.6285 111.537H5.9761C4.316 111.537 2.9042 110.955 1.74417 109.794C0.5811 108.631 0 107.22 0 105.561V5.9748C0 4.31557 0.5811 2.90507 1.74417 1.742C2.9042 0.581533 4.316 0 5.9761 0H61.7448C63.404 0 65.2305 0.414267 67.2213 1.2441C69.2137 2.07523 70.7902 3.0706 71.952 4.23193L91.3718 23.6513Z" fill="#E1E0E1"/>
</svg>
