<svg width="73" height="60" viewBox="0 0 73 60" fill="none" xmlns="http://www.w3.org/2000/svg">
    <path fill-rule="evenodd" clip-rule="evenodd" d="M5.56479 8.86423C6.08547 7.14154 7.69526 5.87233 9.57843 5.87233H63.4197C65.303 5.87233 66.9128 7.14166 67.4334 8.86448L36.4993 30.5184L5.56479 8.86423ZM5.38796 14.9406V50.4438C5.38796 52.7427 7.27948 54.6342 9.57843 54.6342H63.4197C65.7187 54.6342 67.6102 52.7427 67.6102 50.4438V14.9409L37.9557 35.699C37.0812 36.3112 35.9173 36.3112 35.0429 35.699L5.38796 14.9406ZM72.6895 10.1083V50.4438C72.6895 55.548 68.5239 59.7136 63.4197 59.7136H9.57843C4.47422 59.7136 0.308594 55.548 0.308594 50.4438V10.0628C0.308594 4.95859 4.47422 0.792969 9.57843 0.792969H63.4197C68.5043 0.792969 72.6576 4.92672 72.6894 10.0042C72.6901 10.0389 72.6902 10.0736 72.6895 10.1083Z" fill="black" fill-opacity="0.12"/>
</svg>
