<svg width="108" height="126" viewBox="0 0 108 126" fill="none" xmlns="http://www.w3.org/2000/svg">
<path d="M108 102V108H0V102L12 90V54C12 35.4 24.18 19.02 42 13.74V12C42 8.8174 43.2643 5.76515 45.5147 3.51472C47.7652 1.26428 50.8174 0 54 0C57.1826 0 60.2348 1.26428 62.4853 3.51472C64.7357 5.76515 66 8.8174 66 12V13.74C83.82 19.02 96 35.4 96 54V90L108 102ZM66 114C66 117.183 64.7357 120.235 62.4853 122.485C60.2348 124.736 57.1826 126 54 126C50.8174 126 47.7652 124.736 45.5147 122.485C43.2643 120.235 42 117.183 42 114" fill="#E1E0E1"/>
</svg>
