<svg width="126" height="126" viewBox="0 0 126 126" fill="none" xmlns="http://www.w3.org/2000/svg">
    <path fill-rule="evenodd" clip-rule="evenodd" d="M51 68C62.0457 68 71 59.0457 71 48C71 36.9543 62.0457 28 51 28C39.9543 28 31 36.9543 31 48C31 59.0457 39.9543 68 51 68ZM47.5796 71C29.0845 71 13.5985 85.0146 11.7582 103.418L10 121H94L92.2418 103.418C90.4015 85.0146 74.9155 71 56.4204 71H47.5796Z" fill="black" fill-opacity="0.12"/>
    <path d="M88.5 3C73.32 3 61 15.32 61 30.5C61 45.68 73.32 58 88.5 58C103.68 58 116 45.68 116 30.5C116 15.32 103.68 3 88.5 3ZM91.25 49.75H85.75V44.25H91.25V49.75ZM96.9425 28.4375L94.4675 30.9675C92.4875 32.975 91.25 34.625 91.25 38.75H85.75V37.375C85.75 34.35 86.9875 31.6 88.9675 29.5925L92.3775 26.1275C93.395 25.1375 94 23.7625 94 22.25C94 19.225 91.525 16.75 88.5 16.75C85.475 16.75 83 19.225 83 22.25H77.5C77.5 16.1725 82.4225 11.25 88.5 11.25C94.5775 11.25 99.5 16.1725 99.5 22.25C99.5 24.67 98.51 26.87 96.9425 28.4375Z" fill="black" fill-opacity="0.12"/>
</svg>
