<?xml version="1.0" encoding="UTF-8"?><svg id="Layer_2" xmlns="http://www.w3.org/2000/svg" viewBox="0 0 312.33 134.49"><defs><style>.cls-1,.cls-2{stroke-width:0px;}.cls-2{fill:#fff;}</style></defs><g id="Layer_1-2"><rect class="cls-1" width="312.33" height="134.49"/><path class="cls-2" d="m63.79,35.44c-4.81,0-7.7,3.21-7.7,7.7v53.74c0,9.62-6.9,13.96-13.79,13.96-3.61,0-6.58-1.04-8.42-2.09v-6.66c2.41,1.28,4.41,2.01,6.9,2.01,4.81,0,7.7-3.21,7.7-7.7v-53.74c0-9.62,6.9-13.96,13.79-13.96,3.61,0,6.58,1.04,8.42,2.09v6.66c-2.33-1.28-4.41-2-6.9-2Z"/><path class="cls-2" d="m118.5,33.6h8.5l23.26,59.67h-55.02l23.26-59.67Zm21.41,53.02l-17.16-44.84-17.24,44.84h34.41Z"/><path class="cls-2" d="m202.56,23.01h7.22l-26.87,80.93h-7.14l26.79-80.93Z"/><path class="cls-2" d="m258.55,86.62h-6.91v-19.81h-19.33v-6.67h19.33v-19.73h6.91v19.73h19.81v6.67h-19.81v19.81Z"/></g></svg>