<svg width="121" height="31" viewBox="0 0 121 31" fill="none" xmlns="http://www.w3.org/2000/svg">
<path d="M35.7898 28.8105C35.6413 28.8105 35.5206 28.6889 35.5206 28.5393V6.10711C35.5206 5.9575 35.6413 5.83594 35.7898 5.83594C35.9383 5.83594 36.059 5.9575 36.059 6.10711V28.5393C36.059 28.6889 35.9383 28.8105 35.7898 28.8105Z" fill="white"/>
<path d="M43.7817 23.9293H46.1116V24.3127H44.218V25.3413H45.8609V25.7246H44.218V26.8748H46.158V27.2582H43.7817V23.9293Z" fill="white"/>
<path d="M47.1882 23.9293H49.3138V24.3127H47.6245V25.3039H49.1839V25.6872H47.6245V27.2675H47.1882V23.9293Z" fill="white"/>
<path d="M50.502 23.9293H52.6275V24.3127H50.9382V25.3039H52.5069V25.6872H50.9475V27.2675H50.5112V23.9293H50.502Z" fill="white"/>
<path d="M55.3844 23.8452C56.4147 23.8452 57.0459 24.5559 57.0459 25.6031C57.0459 26.6411 56.4147 27.3611 55.3844 27.3611C54.3541 27.3611 53.7136 26.6504 53.7136 25.6031C53.7229 24.5559 54.3541 23.8452 55.3844 23.8452ZM55.3844 26.987C56.2012 26.987 56.5725 26.3231 56.5725 25.5938C56.5725 24.8644 56.2012 24.2005 55.3844 24.2005C54.5676 24.2005 54.1963 24.8644 54.1963 25.5938C54.1963 26.3231 54.5676 26.987 55.3844 26.987Z" fill="white"/>
<path d="M58.1689 23.9293H59.6634C60.1832 23.9293 60.7308 24.135 60.7308 24.8924C60.7308 25.3226 60.5359 25.734 59.9604 25.8275L60.87 27.2675H60.341L59.4499 25.8556H58.6052V27.2675H58.1689V23.9293ZM58.6052 25.4628H59.5984C60.0068 25.4628 60.2945 25.3319 60.2945 24.8831C60.2945 24.4436 60.0068 24.3033 59.5984 24.3033H58.6052V25.4628Z" fill="white"/>
<path d="M62.4945 24.3127H61.5013V23.9293H63.924V24.3127H62.9308V27.2675H62.4945V24.3127Z" fill="white"/>
<path d="M64.8984 23.9293H65.3347V26.8841H66.9869V27.2675H64.8984V23.9293Z" fill="white"/>
<path d="M68.0452 23.9293H70.375V24.3127H68.4814V25.3413H70.1244V25.7246H68.4814V26.8748H70.4214V27.2582H68.0452V23.9293Z" fill="white"/>
<path d="M73.5308 24.9019C73.503 24.4063 73.1317 24.1912 72.6768 24.1912C72.3613 24.1912 71.9343 24.3034 71.9343 24.6961C71.9343 25.5751 74.0413 24.9206 74.0413 26.3045C74.0413 27.0151 73.3916 27.3424 72.7697 27.3424C71.9807 27.3424 71.3588 27.0245 71.3031 26.1735L71.7765 26.1268C71.795 26.7346 72.1756 26.9777 72.7511 26.9777C73.1688 26.9777 73.5679 26.7813 73.5679 26.3138C73.5679 25.3974 71.4609 26.0146 71.4609 24.7803C71.4609 24.1351 72.0735 23.8265 72.649 23.8265C73.3359 23.8265 73.8928 24.1445 73.9856 24.8645L73.5308 24.9019Z" fill="white"/>
<path d="M77.1973 24.9019C77.1695 24.4063 76.7982 24.1912 76.3434 24.1912C76.0278 24.1912 75.6008 24.3034 75.6008 24.6961C75.6008 25.5751 77.7078 24.9206 77.7078 26.3045C77.7078 27.0151 77.0581 27.3424 76.4362 27.3424C75.6472 27.3424 75.0253 27.0245 74.9696 26.1735L75.443 26.1268C75.4708 26.7346 75.8421 26.9777 76.4176 26.9777C76.8353 26.9777 77.2344 26.7813 77.2344 26.3138C77.2344 25.3974 75.1274 26.0146 75.1274 24.7803C75.1274 24.1351 75.74 23.8265 76.3155 23.8265C77.0024 23.8265 77.5593 24.1445 77.6521 24.8645L77.1973 24.9019Z" fill="white"/>
<path d="M83.2399 24.958C83.1285 24.4998 82.683 24.2006 82.191 24.2006C81.3742 24.2006 81.0029 24.8645 81.0029 25.5938C81.0029 26.3232 81.3742 26.9871 82.191 26.9871C82.7665 26.9871 83.1935 26.585 83.277 25.9959L83.7411 26.052C83.5926 26.8374 82.9243 27.3424 82.2003 27.3424C81.17 27.3424 80.5295 26.6317 80.5295 25.5845C80.5295 24.5465 81.1607 23.8265 82.2003 23.8265C82.915 23.8265 83.4998 24.1725 83.704 24.8551L83.2399 24.958Z" fill="white"/>
<path d="M84.8086 23.9293H86.303C86.8228 23.9293 87.3705 24.135 87.3705 24.8924C87.3705 25.3226 87.1755 25.734 86.6 25.8275L87.5097 27.2675H86.9806L86.0895 25.8556H85.2449V27.2675H84.8086V23.9293ZM85.2449 25.4628H86.238C86.6465 25.4628 86.9342 25.3319 86.9342 24.8831C86.9342 24.4436 86.6465 24.3033 86.238 24.3033H85.2449V25.4628Z" fill="white"/>
<path d="M88.4657 23.9293H90.7955V24.3127H88.902V25.3413H90.5449V25.7246H88.902V26.8748H90.8419V27.2582H88.4657V23.9293Z" fill="white"/>
<path d="M92.8468 23.9293H93.3109L94.5083 27.2675H94.0349L93.6822 26.2483H92.4291L92.0486 27.2675H91.5845L92.8468 23.9293ZM93.0789 24.4717H93.0696L92.5684 25.8556H93.5523L93.0789 24.4717Z" fill="white"/>
<path d="M95.8449 24.3127H94.8517V23.9293H97.2836V24.3127H96.2904V27.2675H95.8541V24.3127H95.8449Z" fill="white"/>
<path d="M99.8084 23.8452C100.839 23.8452 101.479 24.5559 101.479 25.6031C101.479 26.6411 100.848 27.3611 99.8084 27.3611C98.778 27.3611 98.1376 26.6504 98.1376 25.6031C98.1469 24.5559 98.778 23.8452 99.8084 23.8452ZM99.8084 26.987C100.625 26.987 100.996 26.3231 100.996 25.5938C100.996 24.8644 100.625 24.2005 99.8084 24.2005C98.9915 24.2005 98.6202 24.8644 98.6202 25.5938C98.6202 26.3231 98.9915 26.987 99.8084 26.987Z" fill="white"/>
<path d="M102.593 23.9293H104.087C104.607 23.9293 105.155 24.135 105.155 24.8924C105.155 25.3226 104.96 25.734 104.384 25.8275L105.294 27.2675H104.765L103.874 25.8556H103.029V27.2675H102.593V23.9293ZM103.029 25.4628H104.022C104.431 25.4628 104.719 25.3319 104.719 24.8831C104.719 24.4436 104.431 24.3033 104.022 24.3033H103.029V25.4628Z" fill="white"/>
<path d="M108.107 23.9293H109.36C110.371 23.9293 110.826 24.6119 110.826 25.6218C110.826 26.5756 110.353 27.2675 109.36 27.2675H108.107V23.9293ZM108.552 26.8748H109.295C110.084 26.8748 110.362 26.3418 110.362 25.5657C110.362 24.8083 110.065 24.3033 109.332 24.3033H108.552V26.8748Z" fill="white"/>
<path d="M112.924 23.9293H113.388L114.586 27.2675H114.112L113.769 26.2389H112.516L112.135 27.2582H111.662L112.924 23.9293ZM113.156 24.4717H113.147L112.646 25.8556H113.63L113.156 24.4717Z" fill="white"/>
<path d="M115.922 24.3127H114.929V23.9293H117.361V24.3127H116.368V27.2675H115.931V24.3127H115.922Z" fill="white"/>
<path d="M118.957 23.9293H119.422L120.619 27.2675H120.146L119.802 26.2389H118.549L118.168 27.2582H117.695L118.957 23.9293ZM119.189 24.4717L118.679 25.8556H119.663L119.189 24.4717Z" fill="white"/>
<path d="M51.9963 11.9886C51.6529 11.2218 50.7339 10.3242 49.0724 10.3242C47.7637 10.2961 46.9376 10.7636 46.9376 11.4556C46.9376 13.494 54.2704 11.7548 54.2704 16.1777C54.2704 19.0016 51.7642 20.2733 49.1003 20.2733C46.3621 20.2733 44.5057 19.3195 43.4661 18.1413L45.5824 16.4956C46.2228 17.4494 47.4481 17.9543 48.9425 17.9543C50.2791 17.9543 51.198 17.2156 51.198 16.5891C51.198 14.5974 44.0044 16.2431 44.0044 11.7922C44.0044 9.15534 46.2785 7.99586 49.156 7.99586C51.9406 7.99586 53.4072 9.43586 53.9641 10.1278L51.9963 11.9886ZM58.206 14.8125C58.2524 16.5517 59.7004 17.6831 61.2134 17.6831C63.4226 17.6831 64.2951 16.4114 64.5735 16.0187L66.9405 17.412C66.0679 18.7585 64.3879 20.2826 61.2134 20.2826C57.4449 20.2826 55.2543 17.6457 55.2543 14.1486C55.2543 10.6514 57.4449 8.00521 61.2134 8.00521C65.1026 8.00521 66.8012 10.6234 66.8012 14.8125H58.206ZM63.8588 12.6338C63.8588 12.0073 63.0977 10.3148 61.2134 10.3148C59.5798 10.3148 58.503 11.3808 58.206 12.6338H63.8588ZM76.2782 11.9886C75.9348 11.2218 75.0159 10.3242 73.3544 10.3242C72.0456 10.2961 71.2195 10.7636 71.2195 11.4556C71.2195 13.494 78.5524 11.7548 78.5524 16.1777C78.5524 19.0016 76.0462 20.2733 73.3822 20.2733C70.644 20.2733 68.7876 19.3195 67.748 18.1413L69.8643 16.4956C70.5048 17.4494 71.73 17.9543 73.2244 17.9543C74.5611 17.9543 75.48 17.2156 75.48 16.5891C75.48 14.5974 68.2864 16.2431 68.2864 11.7922C68.2864 9.15534 70.5605 7.99586 73.4379 7.99586C76.2225 7.99586 77.6891 9.43586 78.246 10.1278L76.2782 11.9886ZM87.7695 11.9886C87.426 11.2218 86.5071 10.3242 84.8456 10.3242C83.5368 10.2961 82.7107 10.7636 82.7107 11.4556C82.7107 13.494 90.0436 11.7548 90.0436 16.1777C90.0436 19.0016 87.5374 20.2733 84.8735 20.2733C82.1352 20.2733 80.2788 19.3195 79.2392 18.1413L81.3555 16.4956C81.996 17.4494 83.2212 17.9543 84.7157 17.9543C86.0523 17.9543 86.9712 17.2156 86.9712 16.5891C86.9712 14.5974 79.7776 16.2431 79.7776 11.7922C79.7776 9.15534 82.0517 7.99586 84.9291 7.99586C87.7138 7.99586 89.1803 9.43586 89.7373 10.1278L87.7695 11.9886ZM91.7701 8.28573H94.5732V20.0021H91.7701V8.28573ZM108.506 14.1392C108.506 17.6364 106.324 20.2733 102.547 20.2733C98.7687 20.2733 96.5967 17.6364 96.5967 14.1392C96.5967 10.6421 98.778 8.00521 102.556 8.00521C106.334 8.00521 108.506 10.6421 108.506 14.1392ZM99.5392 14.1392C99.5392 15.972 100.551 17.6831 102.547 17.6831C104.542 17.6831 105.554 15.972 105.554 14.1392C105.554 12.3065 104.542 10.5953 102.547 10.5953C100.551 10.5953 99.5392 12.3159 99.5392 14.1392ZM110.529 8.28573H113.332V9.44521H113.379C114.205 8.42599 115.421 8.00521 116.553 8.00521C119.31 8.00521 120.554 9.41715 120.554 11.9886V20.0021H117.751V12.8488C117.751 11.7829 117.268 10.7449 115.82 10.7449C114.465 10.7449 113.332 11.6707 113.332 13.8213V20.0021H110.529V8.28573ZM91.6215 4.94754C91.6215 5.8078 92.3177 6.5091 93.1716 6.5091C94.0256 6.5091 94.7217 5.8078 94.7217 4.94754C94.7217 4.08728 94.0256 3.38599 93.1716 3.38599C92.3177 3.38599 91.6215 4.08728 91.6215 4.94754Z" fill="white"/>
<path d="M28.1042 21.6665L13.9583 29.9325C12.3247 30.8863 10.2269 30.3252 9.28016 28.6795L1.08407 14.4385C0.137299 12.7928 0.694224 10.6795 2.32787 9.72577L16.4645 1.45979C18.0981 0.506029 20.1959 1.06707 21.1427 2.71278L29.348 16.9632C30.2948 18.5995 29.7379 20.7221 28.1042 21.6665ZM8.222 14.6162C8.222 13.466 7.39589 12.5216 6.39343 12.5216C5.39096 12.5216 4.56486 13.466 4.56486 14.6162V15.2333C4.56486 16.3834 5.39096 17.3278 6.39343 17.3278C7.39589 17.3278 8.222 16.3834 8.222 15.2333V14.6162ZM12.5103 12.9704C12.5103 11.7923 11.6842 10.8198 10.6818 10.8198C9.67929 10.8198 8.85318 11.7829 8.85318 12.9704V17.7393C8.85318 18.9175 9.67929 19.8899 10.6818 19.8899C11.6842 19.8899 12.5103 18.9268 12.5103 17.7393V12.9704ZM16.9657 8.57564C16.9657 7.39746 16.1396 6.42499 15.1372 6.42499C14.1347 6.42499 13.3086 7.3881 13.3086 8.57564V22.4894C13.3086 23.6676 14.1347 24.6401 15.1372 24.6401C16.1396 24.6401 16.9657 23.6769 16.9657 22.4894V8.57564ZM21.4211 11.7362C21.4211 10.558 20.595 9.58551 19.5926 9.58551C18.5901 9.58551 17.764 10.5486 17.764 11.7362V18.9736C17.764 20.1517 18.5901 21.1242 19.5926 21.1242C20.595 21.1242 21.4211 20.1611 21.4211 18.9736V11.7362ZM25.8116 16.692C25.8116 15.6728 24.9947 14.8499 23.983 14.8499C22.9712 14.8499 22.1544 15.6728 22.1544 16.692C22.1544 17.7112 22.9712 18.5341 23.983 18.5341C24.9947 18.5341 25.8116 17.7112 25.8116 16.692Z" fill="white"/>
</svg>
