<svg width="99" height="114" viewBox="0 0 99 114" fill="none" xmlns="http://www.w3.org/2000/svg">
<path d="M64.2383 81.0613C64.2383 81.4232 64.131 81.7769 63.93 82.0778C63.7289 82.3787 63.4432 82.6132 63.1089 82.7517C62.7746 82.8902 62.4067 82.9265 62.0518 82.8559C61.6969 82.7853 61.3709 82.611 61.115 82.3551C60.8592 82.0992 60.6849 81.7732 60.6143 81.4182C60.5437 81.0633 60.58 80.6954 60.7184 80.3611C60.8569 80.0267 61.0914 79.741 61.3923 79.5399C61.6932 79.3389 62.0469 79.2316 62.4087 79.2316C62.894 79.2316 63.3593 79.4243 63.7024 79.7675C64.0456 80.1106 64.2383 80.576 64.2383 81.0613ZM60.7479 98.6633H64.0513V84.9627H60.7479V98.6633ZM50.0815 88.6709C50.0815 87.8577 51.0553 87.3169 52.6002 87.3454C54.5497 87.3454 55.6312 88.4005 56.0378 89.2951L58.343 87.1279C57.6946 86.3146 55.9605 84.6374 52.6856 84.6374C49.3009 84.6374 46.6196 85.9894 46.6196 89.0775C46.6196 94.276 55.0945 92.3548 55.0945 94.6826C55.0945 95.4145 54.011 96.2806 52.4417 96.2806C50.6812 96.2806 49.246 95.6849 48.4878 94.5749L45.9975 96.4981C47.2172 97.8786 49.4086 98.9886 52.6307 98.9886C55.7715 98.9886 58.7293 97.5004 58.7293 94.1947C58.7191 89.0227 50.0815 91.0537 50.0815 88.6709ZM36.5427 88.6709C36.5427 87.8577 37.5185 87.3169 39.0614 87.3454C41.0109 87.3454 42.0944 88.4005 42.501 89.2951L44.8022 87.1279C44.1517 86.3146 42.4197 84.6374 39.1427 84.6374C35.758 84.6374 33.0767 85.9894 33.0767 89.0775C33.0767 94.276 41.5517 92.3548 41.5517 94.6826C41.5517 95.4145 40.4702 96.2806 38.8988 96.2806C37.1383 96.2806 35.7031 95.6849 34.9449 94.5749L32.4546 96.4981C33.6744 97.8786 35.8658 98.9886 39.0878 98.9886C42.2286 98.9886 45.1864 97.5004 45.1864 94.1947C45.1803 89.0227 36.5427 91.0537 36.5427 88.6709ZM7.95062 88.6709C7.95062 87.8577 8.92639 87.3169 10.4693 87.3454C12.4188 87.3454 13.5023 88.4005 13.9089 89.2951L16.2101 87.1279C15.5596 86.3146 13.8276 84.6374 10.5506 84.6374C7.16594 84.6374 4.4846 85.9894 4.4846 89.0775C4.4846 94.276 12.9616 92.3548 12.9616 94.6826C12.9616 95.4145 11.8781 96.2806 10.3067 96.2806C8.54625 96.2806 7.11105 95.6849 6.3528 94.5749L3.86255 96.4981C5.08226 97.8786 7.27368 98.9886 10.4958 98.9886C13.6365 98.9886 16.5943 97.5004 16.5943 94.1947C16.5882 89.0227 7.95062 91.0537 7.95062 88.6709ZM28.7183 94.0056L31.5073 95.6321C30.4787 97.2036 28.5028 98.9906 24.7644 98.9906C20.3246 98.9906 17.753 95.9045 17.753 91.814C17.753 87.7235 20.3287 84.6374 24.7644 84.6374C29.3423 84.6374 31.3447 87.6971 31.3447 92.5988H21.2191C21.2719 94.6318 22.9775 95.9553 24.7644 95.9553C27.3644 95.9594 28.393 94.4671 28.7183 94.0056ZM21.2191 90.0636H27.8787C27.8787 89.3317 26.9863 87.3556 24.7644 87.3556C22.8433 87.3454 21.5707 88.5896 21.2191 90.0636ZM80.5947 55.9086L46.2862 75.8079C44.3775 76.9066 42.1115 77.2051 39.9834 76.6383C37.8553 76.0715 36.0381 74.6853 34.9286 72.7828L15.027 38.4773C13.9277 36.5694 13.628 34.304 14.1932 32.1758C14.7584 30.0477 16.1427 28.2296 18.0437 27.1187L52.3542 7.21529C54.262 6.11592 56.5272 5.81614 58.6552 6.38142C60.7831 6.9467 62.601 8.33111 63.7118 10.2323L83.6134 44.5459C84.7138 46.4544 85.014 48.721 84.4483 50.8502C83.8827 52.9793 82.4971 54.798 80.5947 55.9086ZM32.3469 38.9225C32.3469 36.1535 30.3506 33.8887 27.9112 33.8887C25.4718 33.8887 23.4735 36.1535 23.4735 38.9225V40.4107C23.4735 43.1797 25.4698 45.4465 27.9112 45.4465C30.3527 45.4465 32.3469 43.1797 32.3469 40.4107V38.9225ZM42.7551 34.9418C42.7551 32.0956 40.7589 29.7657 38.3194 29.7657C35.88 29.7657 33.8817 32.0956 33.8817 34.9418V46.4285C33.8817 49.2747 35.878 51.6046 38.3194 51.6046C40.7609 51.6046 42.7551 49.2747 42.7551 46.4285V34.9418ZM53.5719 24.3701C53.5719 21.5238 51.5736 19.1939 49.1342 19.1939C46.6948 19.1939 44.6965 21.5238 44.6965 24.3701V57.8867C44.6965 60.7329 46.6928 63.0628 49.1342 63.0628C51.5757 63.0628 53.5719 60.7329 53.5719 57.8867V24.3701ZM64.3867 31.9655C64.3867 29.1192 62.3904 26.7873 59.949 26.7873C57.5075 26.7873 55.5113 29.1172 55.5113 31.9655V49.4028C55.5113 52.2491 57.5096 54.581 59.949 54.581C62.3884 54.581 64.3867 52.2491 64.3867 49.4028V31.9655ZM75.0389 43.9136C75.0389 43.0359 74.7786 42.1778 74.291 41.4479C73.8034 40.7181 73.1103 40.1493 72.2994 39.8133C71.4885 39.4774 70.5962 39.3895 69.7354 39.5608C68.8746 39.732 68.0838 40.1547 67.4632 40.7754C66.8426 41.3961 66.4199 42.1869 66.2487 43.0478C66.0775 43.9087 66.1654 44.8011 66.5012 45.612C66.8371 46.423 67.4059 47.1161 68.1357 47.6038C68.8655 48.0915 69.7234 48.3518 70.6012 48.3518C71.7781 48.3518 72.9069 47.8842 73.7391 47.0519C74.5713 46.2196 75.0389 45.0907 75.0389 43.9136ZM89.9356 84.6333C89.2261 84.6177 88.5219 84.7605 87.8745 85.0513C87.2271 85.3422 86.6527 85.7738 86.1931 86.3146H86.1403V84.9627H82.843V98.6633H86.1464V91.4338C86.1464 88.9149 87.4718 87.8313 89.0696 87.8313C90.7752 87.8313 91.3444 89.0511 91.3444 90.2953V98.6633H94.6478V89.2951C94.6478 86.2882 93.1862 84.6374 89.9356 84.6374V84.6333ZM80.4605 91.812C80.4605 95.9025 77.8889 98.9886 73.4471 98.9886C69.0054 98.9886 66.4338 95.9025 66.4338 91.812C66.4338 87.7215 69.0074 84.6374 73.4471 84.6374C77.8869 84.6374 80.4605 87.7235 80.4605 91.812ZM76.9945 91.812C76.9945 89.6732 75.8032 87.6686 73.4471 87.6686C71.0911 87.6686 69.8998 89.6732 69.8998 91.812C69.8998 93.9507 71.0911 95.9594 73.4471 95.9594C75.8032 95.9594 76.9945 93.9528 76.9945 91.812Z" fill="#010012"/>
<path fill-rule="evenodd" clip-rule="evenodd" d="M50.5161 104.451C50.7399 104.612 50.9037 104.843 50.9816 105.108L51.5102 105.006C51.2743 104.205 50.5771 103.799 49.7375 103.799C48.5198 103.799 47.7738 104.634 47.7738 105.852C47.7738 107.07 48.5178 107.904 49.7375 107.904C50.1712 107.907 50.5923 107.758 50.9269 107.482C51.2615 107.207 51.4882 106.821 51.5671 106.395L51.0243 106.328C50.9956 106.646 50.848 106.941 50.6109 107.155C50.3738 107.369 50.0648 107.485 49.7456 107.481C48.78 107.481 48.3409 106.716 48.3409 105.854C48.3409 104.992 48.78 104.218 49.7456 104.218C50.0213 104.208 50.2924 104.29 50.5161 104.451ZM18.141 103.803C19.3607 103.803 20.1067 104.636 20.1067 105.856C20.1067 107.076 19.3607 107.908 18.141 107.908C16.9212 107.908 16.1772 107.074 16.1772 105.856C16.1772 104.638 16.9233 103.803 18.141 103.803ZM18.141 107.491C19.1066 107.491 19.5457 106.716 19.5457 105.864C19.5457 105.012 19.1066 104.228 18.141 104.228C17.1754 104.228 16.7363 105.002 16.7363 105.864C16.7363 106.726 17.1754 107.491 18.141 107.491ZM8.47053 103.902H10.977V104.352H8.98688V105.515H10.8307V105.966H8.98688V107.81H8.47053V103.902ZM4.45996 103.903H7.20228V104.352H4.96614V105.56H6.91158V106.009H4.97427V107.359H7.25717V107.81H4.45996V103.903ZM14.8864 103.902H12.384V107.81H12.9003V105.966H14.7441V105.515H12.9003V104.352H14.8864V103.902ZM23.1905 103.902H21.4239V107.81H21.9403V106.151H22.9343L23.9874 107.81H24.6175L23.5422 106.118C24.2232 106.009 24.4468 105.527 24.4468 105.027C24.4468 104.138 23.8003 103.902 23.1905 103.902ZM23.1092 105.702H21.9403V104.352H23.1092C23.5808 104.352 23.9223 104.506 23.9223 105.027C23.9223 105.547 23.591 105.702 23.1092 105.702ZM26.5244 104.352H25.3495V103.902H28.2137V104.352H27.0367V107.808H26.5204L26.5244 104.352ZM29.8827 103.902H29.3562V107.81H31.8301V107.359H29.8827V103.902ZM33.0662 103.902H35.8106V104.352H33.5744V105.559H35.5117V106.009H33.5826V107.359H35.8655V107.81H33.0662V103.902ZM38.5205 104.22C39.0714 104.22 39.5105 104.472 39.5369 105.049L40.0614 105.031C39.9516 104.179 39.299 103.811 38.4859 103.811C37.811 103.811 37.0873 104.169 37.0873 104.925C37.0873 105.704 37.8031 105.854 38.4656 105.992C39.0363 106.111 39.5674 106.223 39.5674 106.72C39.5674 107.273 39.0958 107.499 38.6018 107.499C37.9269 107.499 37.4817 107.208 37.4552 106.501L36.8962 106.549C36.9613 107.548 37.6972 107.916 38.6241 107.916C39.3641 107.916 40.1284 107.523 40.1284 106.696C40.1284 105.788 39.3588 105.626 38.6767 105.482C38.1338 105.368 37.6463 105.265 37.6463 104.807C37.6463 104.346 38.1525 104.22 38.5205 104.22ZM43.8566 105.049C43.8302 104.472 43.3911 104.22 42.8402 104.22C42.4723 104.22 41.9661 104.346 41.9661 104.807C41.9661 105.265 42.4532 105.368 42.9956 105.482C43.6772 105.626 44.4462 105.788 44.4462 106.696C44.4462 107.523 43.6839 107.916 42.9439 107.916C42.0169 107.916 41.281 107.548 41.2139 106.549L41.775 106.501C41.8014 107.208 42.2466 107.499 42.9215 107.499C43.4155 107.499 43.8871 107.273 43.8871 106.72C43.8871 106.223 43.356 106.111 42.7854 105.992C42.1229 105.854 41.4071 105.704 41.4071 104.925C41.4071 104.169 42.1308 103.811 42.8057 103.811C43.6188 103.811 44.2714 104.179 44.3811 105.031L43.8566 105.049ZM52.8317 103.902H54.5983C55.2081 103.902 55.8546 104.138 55.8546 105.027C55.8546 105.527 55.631 106.009 54.95 106.118L56.0253 107.81H55.3992L54.3462 106.151H53.3481V107.81H52.8317V103.902ZM53.3481 105.702H54.517C54.9987 105.702 55.3301 105.547 55.3301 105.027C55.3301 104.506 54.9886 104.352 54.517 104.352H53.3481V105.702ZM59.8936 103.902H57.1513V107.81H59.9485V107.359H57.6676V106.009H59.6029V105.559H57.6676V104.352H59.8936V103.902ZM62.315 103.902H62.8639L64.2869 107.81H63.7319L63.3152 106.613H61.8332L61.384 107.81H60.8229L62.315 103.902ZM62.5895 104.545H62.5793L61.9857 106.171H63.1505L62.5895 104.545ZM64.677 104.352H65.8499V107.808H66.3663V104.352H67.5413V103.902H64.677V104.352ZM70.5276 103.803C71.7473 103.803 72.4913 104.636 72.4913 105.856C72.4913 107.076 71.7452 107.908 70.5276 107.908C69.3099 107.908 68.5618 107.074 68.5618 105.856C68.5618 104.638 69.3078 103.803 70.5276 103.803ZM70.5276 107.491C71.4932 107.491 71.9323 106.716 71.9323 105.864C71.9323 105.012 71.4932 104.228 70.5276 104.228C69.562 104.228 69.1229 105.002 69.1229 105.864C69.1229 106.726 69.5599 107.491 70.5276 107.491ZM75.5771 103.902H73.8085V107.81H74.3249V106.151H75.323L76.3781 107.81H77.0022L75.9268 106.118C76.6078 106.009 76.8335 105.527 76.8335 105.027C76.8335 104.138 76.187 103.902 75.5771 103.902ZM75.4938 105.702H74.3249V104.352H75.4938C75.9776 104.352 76.3171 104.506 76.3171 105.027C76.3171 105.547 75.9776 105.702 75.4938 105.702ZM80.3138 103.902H81.7897C82.9809 103.902 83.5176 104.704 83.5176 105.877C83.5176 106.991 82.9586 107.81 81.7897 107.81H80.3138V103.902ZM80.8302 107.359H81.7023C82.6292 107.359 82.9586 106.732 82.9586 105.828C82.9586 104.923 82.613 104.352 81.7388 104.352H80.8241L80.8302 107.359ZM86.5386 103.902H85.9897L84.5037 107.81H85.0587L85.5079 106.613H86.9899L87.4066 107.81H87.9616L86.5386 103.902ZM85.6726 106.171L86.2642 104.545L86.8354 106.171H85.6726ZM89.5227 104.352H88.3498V103.902H91.2141V104.352H90.0391V107.808H89.5227V104.352ZM93.6533 103.902H93.1045L91.6205 107.81H92.1734L92.6247 106.613H94.1046L94.5234 107.81H95.0763L93.6533 103.902ZM93.3667 104.545H93.3789L93.9379 106.171H92.7751L93.3667 104.545Z" fill="#FDFDFF"/>
</svg>
