<svg width="100" height="115" viewBox="0 0 100 115" fill="none" xmlns="http://www.w3.org/2000/svg">
<path d="M64.8871 81.8801C64.8871 82.2456 64.7787 82.603 64.5757 82.9069C64.3726 83.2108 64.084 83.4477 63.7463 83.5876C63.4086 83.7275 63.037 83.7641 62.6785 83.6928C62.32 83.6215 61.9908 83.4454 61.7323 83.187C61.4739 82.9285 61.2978 82.5992 61.2265 82.2407C61.1552 81.8821 61.1918 81.5105 61.3317 81.1728C61.4716 80.8351 61.7084 80.5464 62.0124 80.3434C62.3163 80.1403 62.6736 80.0319 63.0391 80.0319C63.5292 80.0319 63.9993 80.2266 64.3458 80.5732C64.6924 80.9198 64.8871 81.3899 64.8871 81.8801ZM61.3615 99.6599H64.6982V85.8209H61.3615V99.6599ZM50.5873 89.5666C50.5873 88.7452 51.5709 88.1989 53.1315 88.2277C55.1007 88.2277 56.1931 89.2935 56.6038 90.1971L58.9323 88.0079C58.2773 87.1865 56.5257 85.4923 53.2177 85.4923C49.7988 85.4923 47.0904 86.8579 47.0904 89.9773C47.0904 95.2283 55.651 93.2877 55.651 95.639C55.651 96.3783 54.5565 97.2531 52.9713 97.2531C51.1931 97.2531 49.7434 96.6514 48.9775 95.5302L46.4621 97.4729C47.6941 98.8672 49.9076 99.9885 53.1623 99.9885C56.3348 99.9885 59.3224 98.4853 59.3224 95.1462C59.3122 89.9219 50.5873 91.9734 50.5873 89.5666ZM36.9118 89.5666C36.9118 88.7452 37.8974 88.1989 39.4559 88.2277C41.4251 88.2277 42.5196 89.2935 42.9302 90.1971L45.2547 88.0079C44.5976 87.1865 42.8481 85.4923 39.538 85.4923C36.1192 85.4923 33.4107 86.8579 33.4107 89.9773C33.4107 95.2283 41.9713 93.2877 41.9713 95.639C41.9713 96.3783 40.8789 97.2531 39.2916 97.2531C37.5134 97.2531 36.0637 96.6514 35.2978 95.5302L32.7824 97.4729C34.0144 98.8672 36.228 99.9885 39.4826 99.9885C42.6551 99.9885 45.6428 98.4853 45.6428 95.1462C45.6366 89.9219 36.9118 91.9734 36.9118 89.5666ZM8.03085 89.5666C8.03085 88.7452 9.01648 88.1989 10.575 88.2277C12.5442 88.2277 13.6387 89.2935 14.0493 90.1971L16.3738 88.0079C15.7167 87.1865 13.9672 85.4923 10.6571 85.4923C7.23825 85.4923 4.52983 86.8579 4.52983 89.9773C4.52983 95.2283 13.0925 93.2877 13.0925 95.639C13.0925 96.3783 11.998 97.2531 10.4107 97.2531C8.6325 97.2531 7.1828 96.6514 6.41689 95.5302L3.90149 97.4729C5.13352 98.8672 7.34707 99.9885 10.6017 99.9885C13.7742 99.9885 16.7619 98.4853 16.7619 95.1462C16.7557 89.9219 8.03085 91.9734 8.03085 89.5666ZM29.0083 94.9552L31.8255 96.598C30.7865 98.1855 28.7906 99.9905 25.0144 99.9905C20.5298 99.9905 17.9323 96.8732 17.9323 92.7414C17.9323 88.6096 20.5339 85.4923 25.0144 85.4923C29.6387 85.4923 31.6612 88.583 31.6612 93.5341H21.4333C21.4867 95.5877 23.2095 96.9246 25.0144 96.9246C27.6407 96.9287 28.6797 95.4213 29.0083 94.9552ZM21.4333 90.9733H28.1602C28.1602 90.234 27.2588 88.238 25.0144 88.238C23.074 88.2277 21.7886 89.4845 21.4333 90.9733ZM81.4087 56.4733L46.7536 76.5737C44.8257 77.6834 42.5368 77.985 40.3872 77.4125C38.2377 76.8399 36.402 75.4398 35.2814 73.5179L15.1787 38.866C14.0683 36.9388 13.7655 34.6505 14.3365 32.5008C14.9074 30.3512 16.3057 28.5148 18.2259 27.3927L52.883 7.28819C54.81 6.1777 57.0981 5.87489 59.2476 6.44588C61.397 7.01687 63.2333 8.41527 64.3553 10.3357L84.458 44.9959C85.5695 46.9237 85.8727 49.2131 85.3013 51.3638C84.7299 53.5145 83.3304 55.3515 81.4087 56.4733ZM32.6736 39.3157C32.6736 36.5187 30.6571 34.2311 28.1931 34.2311C25.729 34.2311 23.7105 36.5187 23.7105 39.3157V40.8189C23.7105 43.6159 25.727 45.9056 28.1931 45.9056C30.6592 45.9056 32.6736 43.6159 32.6736 40.8189V39.3157ZM43.1869 35.2948C43.1869 32.4198 41.1705 30.0664 38.7064 30.0664C36.2424 30.0664 34.2239 32.4198 34.2239 35.2948V46.8975C34.2239 49.7725 36.2403 52.1259 38.7064 52.1259C41.1725 52.1259 43.1869 49.7725 43.1869 46.8975V35.2948ZM54.113 24.6162C54.113 21.7412 52.0945 19.3878 49.6304 19.3878C47.1664 19.3878 45.1479 21.7412 45.1479 24.6162V58.4714C45.1479 61.3464 47.1643 63.6998 49.6304 63.6998C52.0966 63.6998 54.113 61.3464 54.113 58.4714V24.6162ZM65.037 32.2884C65.037 29.4134 63.0206 27.0579 60.5545 27.0579C58.0883 27.0579 56.0719 29.4113 56.0719 32.2884V49.9019C56.0719 52.7769 58.0904 55.1323 60.5545 55.1323C63.0185 55.1323 65.037 52.7769 65.037 49.9019V32.2884ZM75.7968 44.3572C75.7968 43.4706 75.5339 42.6038 75.0413 41.8666C74.5488 41.1294 73.8487 40.5548 73.0296 40.2155C72.2105 39.8762 71.3092 39.7874 70.4397 39.9604C69.5702 40.1334 68.7715 40.5603 68.1446 41.1873C67.5177 41.8142 67.0908 42.613 66.9178 43.4826C66.7449 44.3522 66.8336 45.2536 67.1729 46.0728C67.5122 46.8919 68.0867 47.5921 68.8239 48.0847C69.561 48.5772 70.4277 48.8402 71.3142 48.8402C72.5031 48.8402 73.6432 48.3679 74.4839 47.5271C75.3245 46.6864 75.7968 45.5462 75.7968 44.3572ZM90.844 85.4882C90.1273 85.4724 89.416 85.6167 88.7621 85.9104C88.1081 86.2042 87.5279 86.6402 87.0637 87.1865H87.0103V85.8209H83.6797V99.6599H87.0165V92.3574C87.0165 89.813 88.3553 88.7185 89.9693 88.7185C91.692 88.7185 92.267 89.9506 92.267 91.2074V99.6599H95.6038V90.1971C95.6038 87.1598 94.1274 85.4923 90.844 85.4923V85.4882ZM81.2732 92.7394C81.2732 96.8712 78.6756 99.9885 74.189 99.9885C69.7023 99.9885 67.1048 96.8712 67.1048 92.7394C67.1048 88.6076 69.7044 85.4923 74.189 85.4923C78.6736 85.4923 81.2732 88.6096 81.2732 92.7394ZM77.7721 92.7394C77.7721 90.579 76.5688 88.5542 74.189 88.5542C71.8091 88.5542 70.6058 90.579 70.6058 92.7394C70.6058 94.8997 71.8091 96.9287 74.189 96.9287C76.5688 96.9287 77.7721 94.9018 77.7721 92.7394Z" fill="white"/>
<path fill-rule="evenodd" clip-rule="evenodd" d="M51.0265 105.506C51.2526 105.669 51.418 105.903 51.4967 106.17L52.0306 106.067C51.7924 105.258 51.0881 104.847 50.24 104.847C49.01 104.847 48.2564 105.691 48.2564 106.921C48.2564 108.151 49.008 108.993 50.24 108.993C50.6781 108.997 51.1035 108.847 51.4414 108.568C51.7794 108.289 52.0084 107.9 52.0881 107.47L51.5398 107.402C51.5109 107.723 51.3617 108.021 51.1223 108.237C50.8828 108.453 50.5706 108.571 50.2482 108.566C49.2729 108.566 48.8293 107.794 48.8293 106.923C48.8293 106.053 49.2729 105.27 50.2482 105.27C50.5267 105.26 50.8005 105.343 51.0265 105.506ZM18.3243 104.851C19.5564 104.851 20.3099 105.693 20.3099 106.925C20.3099 108.158 19.5564 108.997 18.3243 108.997C17.0923 108.997 16.3407 108.156 16.3407 106.925C16.3407 105.695 17.0943 104.851 18.3243 104.851ZM18.3243 108.576C19.2997 108.576 19.7432 107.794 19.7432 106.934C19.7432 106.073 19.2997 105.281 18.3243 105.281C17.349 105.281 16.9054 106.063 16.9054 106.934C16.9054 107.804 17.349 108.576 18.3243 108.576ZM8.55621 104.952H11.088V105.406H9.07777V106.58H10.9402V107.036H9.07777V108.899H8.55621V104.952ZM4.50513 104.952H7.27515V105.406H5.01642V106.626H6.98151V107.08H5.02463V108.443H7.33059V108.899H4.50513V104.952ZM15.0369 104.952H12.5092V108.899H13.0307V107.036H14.8931V106.58H13.0307V105.406H15.0369V104.952ZM23.4248 104.952H21.6404V108.899H22.162V107.223H23.1661L24.2298 108.899H24.8663L23.7801 107.19C24.468 107.079 24.6938 106.593 24.6938 106.088C24.6938 105.19 24.0409 104.952 23.4248 104.952ZM23.3427 106.769H22.162V105.406H23.3427C23.8191 105.406 24.1641 105.562 24.1641 106.088C24.1641 106.613 23.8294 106.769 23.3427 106.769ZM26.7925 105.406H25.6056V104.952H28.4989V105.406H27.3099V108.897H26.7884L26.7925 105.406ZM30.1846 104.952H29.6528V108.899H32.1518V108.443H30.1846V104.952ZM33.4003 104.952H36.1724V105.406H33.9137V106.626H35.8706V107.079H33.9219V108.443H36.2279V108.899H33.4003V104.952ZM38.9097 105.272C39.4661 105.272 39.9097 105.527 39.9364 106.11L40.4661 106.092C40.3553 105.231 39.6961 104.86 38.8748 104.86C38.193 104.86 37.462 105.221 37.462 105.985C37.462 106.771 38.1851 106.923 38.8543 107.063C39.4307 107.183 39.9672 107.295 39.9672 107.798C39.9672 108.357 39.4908 108.585 38.9918 108.585C38.3101 108.585 37.8604 108.291 37.8337 107.576L37.269 107.626C37.3347 108.634 38.078 109.006 39.0144 109.006C39.7618 109.006 40.5339 108.609 40.5339 107.774C40.5339 106.856 39.7565 106.693 39.0675 106.547C38.5191 106.432 38.0267 106.328 38.0267 105.866C38.0267 105.4 38.538 105.272 38.9097 105.272ZM44.2998 106.11C44.2731 105.527 43.8295 105.272 43.2731 105.272C42.9014 105.272 42.3901 105.4 42.3901 105.866C42.3901 106.328 42.8821 106.432 43.43 106.547C44.1185 106.693 44.8952 106.856 44.8952 107.774C44.8952 108.609 44.1252 109.006 43.3778 109.006C42.4414 109.006 41.6981 108.634 41.6304 107.626L42.1971 107.576C42.2238 108.291 42.6735 108.585 43.3552 108.585C43.8542 108.585 44.3306 108.357 44.3306 107.798C44.3306 107.295 43.7941 107.183 43.2177 107.063C42.5485 106.923 41.8254 106.771 41.8254 105.985C41.8254 105.221 42.5564 104.86 43.2382 104.86C44.0595 104.86 44.7187 105.231 44.8295 106.092L44.2998 106.11ZM53.3655 104.952H55.1499C55.7659 104.952 56.4189 105.19 56.4189 106.088C56.4189 106.593 56.193 107.079 55.5051 107.19L56.5914 108.899H55.9589L54.8953 107.223H53.8871V108.899H53.3655V104.952ZM53.8871 106.769H55.0678C55.5544 106.769 55.8891 106.613 55.8891 106.088C55.8891 105.562 55.5441 105.406 55.0678 105.406H53.8871V106.769ZM60.4987 104.952H57.7287V108.899H60.5541V108.443H58.2502V107.079H60.205V106.626H58.2502V105.406H60.4987V104.952ZM62.9446 104.952H63.499L64.9364 108.899H64.3758L63.9548 107.689H62.4579L62.0041 108.899H61.4374L62.9446 104.952ZM63.2218 105.601H63.2115L62.6119 107.244H63.7885L63.2218 105.601ZM65.3304 105.406H66.5152V108.897H67.0368V105.406H68.2236V104.952H65.3304V105.406ZM71.2401 104.851C72.4721 104.851 73.2237 105.693 73.2237 106.925C73.2237 108.158 72.4701 108.997 71.2401 108.997C70.0101 108.997 69.2544 108.156 69.2544 106.925C69.2544 105.695 70.008 104.851 71.2401 104.851ZM71.2401 108.576C72.2154 108.576 72.659 107.794 72.659 106.934C72.659 106.073 72.2154 105.281 71.2401 105.281C70.2647 105.281 69.8212 106.063 69.8212 106.934C69.8212 107.804 70.2627 108.576 71.2401 108.576ZM76.3407 104.952H74.5542V108.899H75.0758V107.223H76.084L77.1497 108.899H77.7801L76.6938 107.19C77.3817 107.079 77.6097 106.593 77.6097 106.088C77.6097 105.19 76.9567 104.952 76.3407 104.952ZM76.2565 106.769H75.0758V105.406H76.2565C76.7452 105.406 77.0881 105.562 77.0881 106.088C77.0881 106.613 76.7452 106.769 76.2565 106.769ZM81.1252 104.952H82.6159C83.8192 104.952 84.3613 105.761 84.3613 106.946C84.3613 108.071 83.7966 108.899 82.6159 108.899H81.1252V104.952ZM81.6467 108.443H82.5276C83.464 108.443 83.7966 107.811 83.7966 106.897C83.7966 105.983 83.4476 105.406 82.5646 105.406H81.6406L81.6467 108.443ZM87.4129 104.952H86.8584L85.3574 108.899H85.918L86.3718 107.689H87.8687L88.2896 108.899H88.8502L87.4129 104.952ZM86.5381 107.244L87.1357 105.601L87.7126 107.244H86.5381ZM90.4271 105.406H89.2423V104.952H92.1355V105.406H90.9487V108.897H90.4271V105.406ZM94.5994 104.952H94.045L92.5461 108.899H93.1046L93.5604 107.689H95.0553L95.4783 108.899H96.0368L94.5994 104.952ZM94.3099 105.601H94.3222L94.8869 107.244H93.7124L94.3099 105.601Z" fill="white"/>
</svg>
