<svg width="381" height="106" viewBox="0 0 381 106" fill="none" xmlns="http://www.w3.org/2000/svg">
<path d="M115.46 90.7196C115.018 90.7196 114.659 90.3616 114.659 89.9211V23.8707C114.659 23.4302 115.018 23.0723 115.46 23.0723C115.902 23.0723 116.262 23.4302 116.262 23.8707V89.9211C116.262 90.3616 115.902 90.7196 115.46 90.7196Z" fill="url(#paint0_linear)"/>
<path d="M139.249 76.348H146.183V77.4769H140.547V80.5054H145.437V81.6343H140.547V85.0208H146.322V86.1496H139.249V76.348Z" fill="#F15A24"/>
<path d="M149.388 76.3475H155.715V77.4764H150.687V80.3948H155.328V81.5236H150.687V86.1766H149.388V76.3475Z" fill="#F15A24"/>
<path d="M159.251 76.3475H165.578V77.4764H160.55V80.3948H165.219V81.5236H160.578V86.1766H159.279V76.3475H159.251Z" fill="#F15A24"/>
<path d="M173.785 76.1C176.851 76.1 178.73 78.1925 178.73 81.2761C178.73 84.3322 176.851 86.4522 173.785 86.4522C170.718 86.4522 168.812 84.3597 168.812 81.2761C168.839 78.1925 170.718 76.1 173.785 76.1ZM173.785 85.3509C176.216 85.3509 177.321 83.3961 177.321 81.2486C177.321 79.101 176.216 77.1462 173.785 77.1462C171.353 77.1462 170.248 79.101 170.248 81.2486C170.248 83.3961 171.353 85.3509 173.785 85.3509Z" fill="#F15A24"/>
<path d="M182.073 76.3475H186.521C188.068 76.3475 189.698 76.9532 189.698 79.1834C189.698 80.4499 189.118 81.6613 187.405 81.9366L190.113 86.1766H188.538L185.886 82.0192H183.371V86.1766H182.073V76.3475ZM183.371 80.8629H186.328C187.543 80.8629 188.4 80.4774 188.4 79.1558C188.4 77.8618 187.543 77.4488 186.328 77.4488H183.371V80.8629Z" fill="#F15A24"/>
<path d="M194.948 77.4764H191.992V76.3475H199.203V77.4764H196.247V86.1766H194.948V77.4764Z" fill="#F15A24"/>
<path d="M202.104 76.3475H203.403V85.0478H208.32V86.1766H202.104V76.3475Z" fill="#F15A24"/>
<path d="M211.47 76.3475H218.405V77.4764H212.768V80.5049H217.659V81.6338H212.768V85.0203H218.543V86.1491H211.47V76.3475Z" fill="#F15A24"/>
<path d="M227.798 79.2109C227.716 77.7517 226.61 77.1184 225.257 77.1184C224.317 77.1184 223.046 77.4488 223.046 78.6052C223.046 81.1932 229.318 79.266 229.318 83.3408C229.318 85.4333 227.384 86.3969 225.533 86.3969C223.184 86.3969 221.333 85.4608 221.167 82.9553L222.577 82.8177C222.632 84.6073 223.765 85.3231 225.478 85.3231C226.721 85.3231 227.909 84.7449 227.909 83.3683C227.909 80.6701 221.637 82.4873 221.637 78.853C221.637 76.9532 223.461 76.0447 225.174 76.0447C227.218 76.0447 228.876 76.9808 229.152 79.1008L227.798 79.2109Z" fill="#F15A24"/>
<path d="M238.712 79.2109C238.629 77.7517 237.524 77.1184 236.17 77.1184C235.231 77.1184 233.96 77.4488 233.96 78.6052C233.96 81.1932 240.232 79.266 240.232 83.3408C240.232 85.4333 238.298 86.3969 236.446 86.3969C234.098 86.3969 232.247 85.4608 232.081 82.9553L233.49 82.8177C233.573 84.6073 234.678 85.3231 236.391 85.3231C237.634 85.3231 238.822 84.7449 238.822 83.3683C238.822 80.6701 232.551 82.4873 232.551 78.853C232.551 76.9532 234.374 76.0447 236.087 76.0447C238.132 76.0447 239.789 76.9808 240.066 79.1008L238.712 79.2109Z" fill="#F15A24"/>
<path d="M256.698 79.3761C256.367 78.027 255.041 77.146 253.576 77.146C251.145 77.146 250.04 79.1008 250.04 81.2483C250.04 83.3958 251.145 85.3507 253.576 85.3507C255.289 85.3507 256.56 84.1668 256.809 82.4322L258.19 82.5974C257.748 84.9101 255.759 86.3969 253.604 86.3969C250.537 86.3969 248.631 84.3044 248.631 81.2208C248.631 78.1647 250.51 76.0447 253.604 76.0447C255.731 76.0447 257.472 77.0634 258.08 79.0732L256.698 79.3761Z" fill="#F15A24"/>
<path d="M261.368 76.3475H265.816C267.363 76.3475 268.993 76.9532 268.993 79.1834C268.993 80.4499 268.413 81.6613 266.7 81.9366L269.408 86.1766H267.833L265.18 82.0192H262.666V86.1766H261.368V76.3475ZM262.666 80.8629H265.623C266.838 80.8629 267.695 80.4774 267.695 79.1558C267.695 77.8618 266.838 77.4488 265.623 77.4488H262.666V80.8629Z" fill="#F15A24"/>
<path d="M272.253 76.3475H279.188V77.4764H273.551V80.5049H278.442V81.6338H273.551V85.0203H279.326V86.1491H272.253V76.3475Z" fill="#F15A24"/>
<path d="M285.294 76.3475H286.675L290.239 86.1766H288.83L287.78 83.1756H284.05L282.918 86.1766H281.536L285.294 76.3475ZM285.984 77.9444H285.957L284.465 82.0192H287.393L285.984 77.9444Z" fill="#F15A24"/>
<path d="M294.218 77.4764H291.262V76.3475H298.5V77.4764H295.544V86.1766H294.246V77.4764H294.218Z" fill="#F15A24"/>
<path d="M306.015 76.1C309.082 76.1 310.988 78.1925 310.988 81.2761C310.988 84.3322 309.11 86.4522 306.015 86.4522C302.948 86.4522 301.042 84.3597 301.042 81.2761C301.07 78.1925 302.948 76.1 306.015 76.1ZM306.015 85.3509C308.446 85.3509 309.552 83.3961 309.552 81.2486C309.552 79.101 308.446 77.1462 306.015 77.1462C303.584 77.1462 302.479 79.101 302.479 81.2486C302.479 83.3961 303.584 85.3509 306.015 85.3509Z" fill="#F15A24"/>
<path d="M314.304 76.3475H318.752C320.3 76.3475 321.93 76.9532 321.93 79.1834C321.93 80.4499 321.35 81.6613 319.637 81.9366L322.344 86.1766H320.769L318.117 82.0192H315.603V86.1766H314.304V76.3475ZM315.603 80.8629H318.559C319.775 80.8629 320.631 80.4774 320.631 79.1558C320.631 77.8618 319.775 77.4488 318.559 77.4488H315.603V80.8629Z" fill="#F15A24"/>
<path d="M330.715 76.3475H334.445C337.457 76.3475 338.811 78.3574 338.811 81.3309C338.811 84.1392 337.401 86.1766 334.445 86.1766H330.715V76.3475ZM332.042 85.0203H334.252C336.6 85.0203 337.429 83.4509 337.429 81.1657C337.429 78.9356 336.545 77.4488 334.362 77.4488H332.042V85.0203Z" fill="#F15A24"/>
<path d="M345.055 76.3475H346.436L350 86.1766H348.591L347.569 83.1481H343.839L342.706 86.1491H341.297L345.055 76.3475ZM345.746 77.9444H345.718L344.226 82.0192H347.155L345.746 77.9444Z" fill="#F15A24"/>
<path d="M353.979 77.4764H351.023V76.3475H358.262V77.4764H355.305V86.1766H354.007V77.4764H353.979Z" fill="#F15A24"/>
<path d="M363.013 76.3475H364.395L367.959 86.1766H366.55L365.528 83.1481H361.798L360.665 86.1491H359.256L363.013 76.3475ZM363.704 77.9444L362.185 82.0192H365.113L363.704 77.9444Z" fill="#F15A24"/>
<path d="M163.7 41.1886C162.678 38.931 159.943 36.2879 154.997 36.2879C151.102 36.2053 148.643 37.5819 148.643 39.6193C148.643 45.6214 170.469 40.5003 170.469 53.5232C170.469 61.838 163.01 65.5824 155.08 65.5824C146.93 65.5824 141.404 62.7741 138.31 59.305L144.609 54.4593C146.515 57.2676 150.162 58.7543 154.611 58.7543C158.589 58.7543 161.324 56.5793 161.324 54.7346C161.324 48.8702 139.912 53.7159 139.912 40.6105C139.912 32.8463 146.681 29.4323 155.246 29.4323C163.535 29.4323 167.9 33.6723 169.558 35.7097L163.7 41.1886ZM182.184 49.5034C182.322 54.6245 186.632 57.9559 191.136 57.9559C197.711 57.9559 200.308 54.2115 201.137 53.0551L208.183 57.1575C205.586 61.1221 200.585 65.6099 191.136 65.6099C179.918 65.6099 173.398 57.8458 173.398 47.5486C173.398 37.2515 179.918 29.4598 191.136 29.4598C202.712 29.4598 207.768 37.1689 207.768 49.5034H182.184ZM199.01 43.0884C199.01 41.2437 196.744 36.2603 191.136 36.2603C186.273 36.2603 183.068 39.399 182.184 43.0884H199.01ZM235.977 41.1886C234.955 38.931 232.22 36.2879 227.274 36.2879C223.378 36.2053 220.919 37.5819 220.919 39.6193C220.919 45.6214 242.746 40.5003 242.746 53.5232C242.746 61.838 235.286 65.5824 227.357 65.5824C219.206 65.5824 213.681 62.7741 210.586 59.305L216.886 54.4593C218.792 57.2676 222.439 58.7543 226.887 58.7543C230.866 58.7543 233.601 56.5793 233.601 54.7346C233.601 48.8702 212.189 53.7159 212.189 40.6105C212.189 32.8463 218.958 29.4323 227.523 29.4323C235.811 29.4323 240.177 33.6723 241.834 35.7097L235.977 41.1886ZM270.181 41.1886C269.159 38.931 266.424 36.2879 261.478 36.2879C257.583 36.2053 255.124 37.5819 255.124 39.6193C255.124 45.6214 276.95 40.5003 276.95 53.5232C276.95 61.838 269.491 65.5824 261.561 65.5824C253.411 65.5824 247.885 62.7741 244.791 59.305L251.09 54.4593C252.996 57.2676 256.643 58.7543 261.092 58.7543C265.07 58.7543 267.805 56.5793 267.805 54.7346C267.805 48.8702 246.393 53.7159 246.393 40.6105C246.393 32.8463 253.162 29.4323 261.727 29.4323C270.016 29.4323 274.381 33.6723 276.039 35.7097L270.181 41.1886ZM282.089 30.2858H290.433V64.784H282.089V30.2858ZM331.904 47.5211C331.904 57.8182 325.411 65.5824 314.166 65.5824C302.921 65.5824 296.456 57.8182 296.456 47.5211C296.456 37.224 302.949 29.4598 314.194 29.4598C325.439 29.4598 331.904 37.224 331.904 47.5211ZM305.215 47.5211C305.215 52.9175 308.226 57.9559 314.166 57.9559C320.107 57.9559 323.118 52.9175 323.118 47.5211C323.118 42.1247 320.107 37.0863 314.166 37.0863C308.226 37.0863 305.215 42.1523 305.215 47.5211ZM337.927 30.2858H346.271V33.6998H346.409C348.868 30.6988 352.487 29.4598 355.858 29.4598C364.064 29.4598 367.766 33.6172 367.766 41.1886V64.784H359.422V43.7216C359.422 40.5829 357.986 37.5268 353.675 37.5268C349.642 37.5268 346.271 40.2525 346.271 46.585V64.784H337.927V30.2858ZM281.647 20.4567C281.647 22.9897 283.72 25.0546 286.261 25.0546C288.803 25.0546 290.875 22.9897 290.875 20.4567C290.875 17.9237 288.803 15.8588 286.261 15.8588C283.72 15.8588 281.647 17.9237 281.647 20.4567Z" fill="url(#paint1_linear)"/>
<path d="M92.5838 69.6847L50.4776 94.0234C45.6149 96.8317 39.3709 95.1798 36.5527 90.3341L12.1566 48.4021C9.33844 43.5564 10.9962 37.3341 15.8588 34.5258L57.9374 10.1871C62.8 7.37875 69.0441 9.03069 71.8622 13.8764L96.286 55.8359C99.1041 60.6541 97.4464 66.9039 92.5838 69.6847ZM33.403 48.9252C33.403 45.5387 30.9441 42.758 27.9602 42.758C24.9763 42.758 22.5173 45.5387 22.5173 48.9252V50.7424C22.5173 54.1289 24.9763 56.9097 27.9602 56.9097C30.9441 56.9097 33.403 54.1289 33.403 50.7424V48.9252ZM46.1675 44.0795C46.1675 40.6104 43.7086 37.7471 40.7247 37.7471C37.7408 37.7471 35.2818 40.5829 35.2818 44.0795V58.1211C35.2818 61.5902 37.7408 64.4536 40.7247 64.4536C43.7086 64.4536 46.1675 61.6177 46.1675 58.1211V44.0795ZM59.4293 31.1393C59.4293 27.6702 56.9703 24.8068 53.9864 24.8068C51.0025 24.8068 48.5436 27.6426 48.5436 31.1393V72.1076C48.5436 75.5767 51.0025 78.44 53.9864 78.44C56.9703 78.44 59.4293 75.6042 59.4293 72.1076V31.1393ZM72.6911 40.4452C72.6911 36.9762 70.2321 34.1128 67.2482 34.1128C64.2643 34.1128 61.8054 36.9486 61.8054 40.4452V61.7554C61.8054 65.2245 64.2643 68.0878 67.2482 68.0878C70.2321 68.0878 72.6911 65.252 72.6911 61.7554V40.4452ZM85.7595 55.0375C85.7595 52.0364 83.3281 49.6136 80.3166 49.6136C77.3051 49.6136 74.8738 52.0364 74.8738 55.0375C74.8738 58.0385 77.3051 60.4614 80.3166 60.4614C83.3281 60.4614 85.7595 58.0385 85.7595 55.0375Z" fill="url(#paint2_linear)"/>
<defs>
<linearGradient id="paint0_linear" x1="114.646" y1="56.8816" x2="116.257" y2="56.8816" gradientUnits="userSpaceOnUse">
<stop stop-color="#C1272D"/>
<stop offset="1" stop-color="#F15A24"/>
</linearGradient>
<linearGradient id="paint1_linear" x1="367.761" y1="40.7278" x2="138.314" y2="40.7278" gradientUnits="userSpaceOnUse">
<stop stop-color="#C1272D"/>
<stop offset="1" stop-color="#F15A24"/>
</linearGradient>
<linearGradient id="paint2_linear" x1="10.7751" y1="52.1008" x2="97.659" y2="52.1008" gradientUnits="userSpaceOnUse">
<stop stop-color="#C1272D"/>
<stop offset="1" stop-color="#F15A24"/>
</linearGradient>
</defs>
</svg>
