<svg width="121" height="31" viewBox="0 0 121 31" fill="none" xmlns="http://www.w3.org/2000/svg">
<path d="M35.7899 28.8102C35.6414 28.8102 35.5208 28.6887 35.5208 28.5391V6.10686C35.5208 5.95725 35.6414 5.83569 35.7899 5.83569C35.9384 5.83569 36.0591 5.95725 36.0591 6.10686V28.5391C36.0591 28.6887 35.9384 28.8102 35.7899 28.8102Z" fill="#010012"/>
<path d="M43.7817 23.9292H46.1116V24.3126H44.218V25.3411H45.8609V25.7245H44.218V26.8747H46.158V27.258H43.7817V23.9292Z" fill="#010012"/>
<path d="M47.1882 23.9292H49.3138V24.3126H47.6245V25.3037H49.1839V25.6871H47.6245V27.2674H47.1882V23.9292Z" fill="#010012"/>
<path d="M50.502 23.9292H52.6275V24.3126H50.9382V25.3037H52.5069V25.6871H50.9475V27.2674H50.5112V23.9292H50.502Z" fill="#010012"/>
<path d="M55.3844 23.8452C56.4147 23.8452 57.0459 24.5559 57.0459 25.6031C57.0459 26.6411 56.4147 27.3611 55.3844 27.3611C54.3541 27.3611 53.7136 26.6504 53.7136 25.6031C53.7229 24.5559 54.3541 23.8452 55.3844 23.8452ZM55.3844 26.987C56.2012 26.987 56.5725 26.3231 56.5725 25.5938C56.5725 24.8644 56.2012 24.2005 55.3844 24.2005C54.5676 24.2005 54.1963 24.8644 54.1963 25.5938C54.1963 26.3231 54.5676 26.987 55.3844 26.987Z" fill="#010012"/>
<path d="M58.1689 23.9292H59.6634C60.1832 23.9292 60.7308 24.1349 60.7308 24.8923C60.7308 25.3224 60.5359 25.7339 59.9604 25.8274L60.87 27.2674H60.341L59.4499 25.8554H58.6052V27.2674H58.1689V23.9292ZM58.6052 25.4627H59.5984C60.0068 25.4627 60.2945 25.3318 60.2945 24.883C60.2945 24.4435 60.0068 24.3032 59.5984 24.3032H58.6052V25.4627Z" fill="#010012"/>
<path d="M62.4944 24.3126H61.5012V23.9292H63.9238V24.3126H62.9307V27.2674H62.4944V24.3126Z" fill="#010012"/>
<path d="M64.8984 23.9292H65.3347V26.884H66.9869V27.2674H64.8984V23.9292Z" fill="#010012"/>
<path d="M68.0452 23.9292H70.375V24.3126H68.4814V25.3411H70.1244V25.7245H68.4814V26.8747H70.4214V27.258H68.0452V23.9292Z" fill="#010012"/>
<path d="M73.5309 24.9017C73.5031 24.4062 73.1318 24.1911 72.677 24.1911C72.3614 24.1911 71.9344 24.3033 71.9344 24.696C71.9344 25.575 74.0414 24.9204 74.0414 26.3043C74.0414 27.015 73.3917 27.3423 72.7698 27.3423C71.9808 27.3423 71.3589 27.0243 71.3032 26.1734L71.7766 26.1267C71.7952 26.7345 72.1757 26.9776 72.7512 26.9776C73.1689 26.9776 73.5681 26.7812 73.5681 26.3137C73.5681 25.3973 71.461 26.0145 71.461 24.7802C71.461 24.135 72.0736 23.8264 72.6491 23.8264C73.336 23.8264 73.8929 24.1443 73.9857 24.8643L73.5309 24.9017Z" fill="#010012"/>
<path d="M77.1972 24.9017C77.1693 24.4062 76.7981 24.1911 76.3432 24.1911C76.0276 24.1911 75.6007 24.3033 75.6007 24.696C75.6007 25.575 77.7077 24.9204 77.7077 26.3043C77.7077 27.015 77.058 27.3423 76.4361 27.3423C75.6471 27.3423 75.0252 27.0243 74.9695 26.1734L75.4429 26.1267C75.4707 26.7345 75.842 26.9776 76.4175 26.9776C76.8352 26.9776 77.2343 26.7812 77.2343 26.3137C77.2343 25.3973 75.1273 26.0145 75.1273 24.7802C75.1273 24.135 75.7399 23.8264 76.3154 23.8264C77.0023 23.8264 77.5592 24.1443 77.652 24.8643L77.1972 24.9017Z" fill="#010012"/>
<path d="M83.2399 24.9578C83.1285 24.4997 82.683 24.2004 82.191 24.2004C81.3742 24.2004 81.0029 24.8643 81.0029 25.5937C81.0029 26.323 81.3742 26.9869 82.191 26.9869C82.7665 26.9869 83.1935 26.5849 83.277 25.9958L83.7411 26.0519C83.5926 26.8373 82.9243 27.3423 82.2003 27.3423C81.17 27.3423 80.5295 26.6316 80.5295 25.5843C80.5295 24.5464 81.1607 23.8264 82.2003 23.8264C82.915 23.8264 83.4998 24.1724 83.704 24.855L83.2399 24.9578Z" fill="#010012"/>
<path d="M84.8086 23.9292H86.303C86.8228 23.9292 87.3705 24.1349 87.3705 24.8923C87.3705 25.3224 87.1755 25.7339 86.6 25.8274L87.5097 27.2674H86.9806L86.0895 25.8554H85.2449V27.2674H84.8086V23.9292ZM85.2449 25.4627H86.238C86.6465 25.4627 86.9342 25.3318 86.9342 24.883C86.9342 24.4435 86.6465 24.3032 86.238 24.3032H85.2449V25.4627Z" fill="#010012"/>
<path d="M88.4658 23.9292H90.7956V24.3126H88.9021V25.3411H90.545V25.7245H88.9021V26.8747H90.842V27.258H88.4658V23.9292Z" fill="#010012"/>
<path d="M92.8468 23.9292H93.3109L94.5083 27.2674H94.0349L93.6822 26.2482H92.4291L92.0486 27.2674H91.5845L92.8468 23.9292ZM93.0789 24.4715H93.0696L92.5684 25.8554H93.5523L93.0789 24.4715Z" fill="#010012"/>
<path d="M95.845 24.3126H94.8518V23.9292H97.2837V24.3126H96.2905V27.2674H95.8543V24.3126H95.845Z" fill="#010012"/>
<path d="M99.8085 23.8452C100.839 23.8452 101.479 24.5559 101.479 25.6031C101.479 26.6411 100.848 27.3611 99.8085 27.3611C98.7782 27.3611 98.1377 26.6504 98.1377 25.6031C98.147 24.5559 98.7782 23.8452 99.8085 23.8452ZM99.8085 26.987C100.625 26.987 100.997 26.3231 100.997 25.5938C100.997 24.8644 100.625 24.2005 99.8085 24.2005C98.9916 24.2005 98.6204 24.8644 98.6204 25.5938C98.6204 26.3231 98.9916 26.987 99.8085 26.987Z" fill="#010012"/>
<path d="M102.593 23.9292H104.087C104.607 23.9292 105.155 24.1349 105.155 24.8923C105.155 25.3224 104.96 25.7339 104.384 25.8274L105.294 27.2674H104.765L103.874 25.8554H103.029V27.2674H102.593V23.9292ZM103.029 25.4627H104.022C104.431 25.4627 104.719 25.3318 104.719 24.883C104.719 24.4435 104.431 24.3032 104.022 24.3032H103.029V25.4627Z" fill="#010012"/>
<path d="M108.107 23.9292H109.36C110.372 23.9292 110.826 24.6118 110.826 25.6217C110.826 26.5754 110.353 27.2674 109.36 27.2674H108.107V23.9292ZM108.552 26.8747H109.295C110.084 26.8747 110.362 26.3417 110.362 25.5656C110.362 24.8082 110.065 24.3032 109.332 24.3032H108.552V26.8747Z" fill="#010012"/>
<path d="M112.924 23.9292H113.388L114.585 27.2674H114.112L113.769 26.2388H112.516L112.135 27.258H111.662L112.924 23.9292ZM113.156 24.4715H113.147L112.646 25.8554H113.629L113.156 24.4715Z" fill="#010012"/>
<path d="M115.922 24.3126H114.929V23.9292H117.361V24.3126H116.368V27.2674H115.931V24.3126H115.922Z" fill="#010012"/>
<path d="M118.957 23.9292H119.422L120.619 27.2674H120.146L119.802 26.2388H118.549L118.168 27.258H117.695L118.957 23.9292ZM119.189 24.4715L118.679 25.8554H119.663L119.189 24.4715Z" fill="#010012"/>
<path d="M51.9965 11.9886C51.6531 11.2218 50.7342 10.3242 49.0727 10.3242C47.7639 10.2961 46.9378 10.7636 46.9378 11.4556C46.9378 13.494 54.2707 11.7548 54.2707 16.1777C54.2707 19.0016 51.7645 20.2733 49.1005 20.2733C46.3623 20.2733 44.5059 19.3195 43.4663 18.1413L45.5826 16.4956C46.2231 17.4494 47.4483 17.9543 48.9427 17.9543C50.2794 17.9543 51.1983 17.2156 51.1983 16.5891C51.1983 14.5974 44.0047 16.2431 44.0047 11.7922C44.0047 9.15534 46.2788 7.99586 49.1562 7.99586C51.9409 7.99586 53.4074 9.43586 53.9643 10.1278L51.9965 11.9886ZM58.2063 14.8125C58.2527 16.5517 59.7007 17.6831 61.2137 17.6831C63.4228 17.6831 64.2953 16.4114 64.5738 16.0187L66.9407 17.412C66.0682 18.7585 64.3881 20.2826 61.2137 20.2826C57.4451 20.2826 55.2546 17.6457 55.2546 14.1486C55.2546 10.6514 57.4451 8.00521 61.2137 8.00521C65.1029 8.00521 66.8015 10.6234 66.8015 14.8125H58.2063ZM63.8591 12.6338C63.8591 12.0073 63.0979 10.3148 61.2137 10.3148C59.58 10.3148 58.5033 11.3808 58.2063 12.6338H63.8591ZM76.2785 11.9886C75.935 11.2218 75.0161 10.3242 73.3546 10.3242C72.0459 10.2961 71.2197 10.7636 71.2197 11.4556C71.2197 13.494 78.5526 11.7548 78.5526 16.1777C78.5526 19.0016 76.0464 20.2733 73.3825 20.2733C70.6443 20.2733 68.7878 19.3195 67.7483 18.1413L69.8646 16.4956C70.505 17.4494 71.7303 17.9543 73.2247 17.9543C74.5613 17.9543 75.4802 17.2156 75.4802 16.5891C75.4802 14.5974 68.2866 16.2431 68.2866 11.7922C68.2866 9.15534 70.5607 7.99586 73.4382 7.99586C76.2228 7.99586 77.6894 9.43586 78.2463 10.1278L76.2785 11.9886ZM87.7697 11.9886C87.4263 11.2218 86.5074 10.3242 84.8459 10.3242C83.5371 10.2961 82.711 10.7636 82.711 11.4556C82.711 13.494 90.0438 11.7548 90.0438 16.1777C90.0438 19.0016 87.5377 20.2733 84.8737 20.2733C82.1355 20.2733 80.2791 19.3195 79.2395 18.1413L81.3558 16.4956C81.9963 17.4494 83.2215 17.9543 84.7159 17.9543C86.0525 17.9543 86.9715 17.2156 86.9715 16.5891C86.9715 14.5974 79.7778 16.2431 79.7778 11.7922C79.7778 9.15534 82.0519 7.99586 84.9294 7.99586C87.714 7.99586 89.1806 9.43586 89.7375 10.1278L87.7697 11.9886ZM91.7703 8.28573H94.5735V20.0021H91.7703V8.28573ZM108.506 14.1392C108.506 17.6364 106.325 20.2733 102.547 20.2733C98.769 20.2733 96.597 17.6364 96.597 14.1392C96.597 10.6421 98.7783 8.00521 102.556 8.00521C106.334 8.00521 108.506 10.6421 108.506 14.1392ZM99.5394 14.1392C99.5394 15.972 100.551 17.6831 102.547 17.6831C104.542 17.6831 105.554 15.972 105.554 14.1392C105.554 12.3065 104.542 10.5953 102.547 10.5953C100.551 10.5953 99.5394 12.3159 99.5394 14.1392ZM110.529 8.28573H113.333V9.44521H113.379C114.205 8.42599 115.421 8.00521 116.553 8.00521C119.31 8.00521 120.554 9.41715 120.554 11.9886V20.0021H117.751V12.8488C117.751 11.7829 117.268 10.7449 115.82 10.7449C114.465 10.7449 113.333 11.6707 113.333 13.8213V20.0021H110.529V8.28573ZM91.6218 4.94754C91.6218 5.8078 92.3179 6.5091 93.1719 6.5091C94.0258 6.5091 94.722 5.8078 94.722 4.94754C94.722 4.08728 94.0258 3.38599 93.1719 3.38599C92.3179 3.38599 91.6218 4.08728 91.6218 4.94754Z" fill="#010012"/>
<path d="M28.1044 21.6664L13.9585 29.9324C12.3248 30.8862 10.2271 30.3251 9.28028 28.6794L1.08419 14.4384C0.137421 12.7927 0.694347 10.6794 2.32799 9.72565L16.4646 1.45967C18.0983 0.505907 20.196 1.06695 21.1428 2.71266L29.3482 16.963C30.2949 18.5994 29.738 20.722 28.1044 21.6664ZM8.22212 14.616C8.22212 13.4659 7.39602 12.5215 6.39355 12.5215C5.39108 12.5215 4.56498 13.4659 4.56498 14.616V15.2332C4.56498 16.3833 5.39108 17.3277 6.39355 17.3277C7.39602 17.3277 8.22212 16.3833 8.22212 15.2332V14.616ZM12.5104 12.9703C12.5104 11.7921 11.6843 10.8197 10.6819 10.8197C9.67941 10.8197 8.8533 11.7828 8.8533 12.9703V17.7392C8.8533 18.9173 9.67941 19.8898 10.6819 19.8898C11.6843 19.8898 12.5104 18.9267 12.5104 17.7392V12.9703ZM16.9658 8.57552C16.9658 7.39733 16.1397 6.42487 15.1373 6.42487C14.1348 6.42487 13.3087 7.38798 13.3087 8.57552V22.4893C13.3087 23.6675 14.1348 24.6399 15.1373 24.6399C16.1397 24.6399 16.9658 23.6768 16.9658 22.4893V8.57552ZM21.4213 11.736C21.4213 10.5579 20.5951 9.58539 19.5927 9.58539C18.5902 9.58539 17.7641 10.5485 17.7641 11.736V18.9734C17.7641 20.1516 18.5902 21.1241 19.5927 21.1241C20.5951 21.1241 21.4213 20.161 21.4213 18.9734V11.736ZM25.8117 16.6919C25.8117 15.6727 24.9949 14.8498 23.9831 14.8498C22.9714 14.8498 22.1545 15.6727 22.1545 16.6919C22.1545 17.7111 22.9714 18.534 23.9831 18.534C24.9949 18.534 25.8117 17.7111 25.8117 16.6919Z" fill="#010012"/>
</svg>
