<svg width="325" height="157" viewBox="0 0 325 157" fill="none" xmlns="http://www.w3.org/2000/svg">
<path fill-rule="evenodd" clip-rule="evenodd" d="M0 99.9386C5.06696 103.507 13.2417 105.923 22.5698 105.923C39.037 105.923 50.2066 98.5584 50.2066 83.02C50.2066 70.0162 40.188 64.8399 29.9388 59.891C19.9226 55.0566 10.7098 52.0626 10.7098 43.3175C10.7098 35.4931 17.5029 32.1541 27.982 32.1541C31.2075 32.1541 38.2312 32.7288 42.49 34.5693L43.295 30.4289C39.1524 28.815 32.4739 28.2402 27.7521 28.2402C12.0907 28.2402 2.41975 34.6845 2.41975 48.152C2.41975 61.2711 12.7811 65.7605 23.2603 71.0545C32.8191 75.8857 41.4536 79.34 41.4536 88.6598C41.4536 98.7882 32.5892 101.782 22.7997 101.782C14.2806 101.782 6.67851 99.4783 1.84466 95.9127L0 99.9386Z" fill="white"/>
<path fill-rule="evenodd" clip-rule="evenodd" d="M90.2285 104.772V33.4187H115.591V29.3896H52.7764V33.4187H78.137V104.772H90.2285Z" fill="white"/>
<path fill-rule="evenodd" clip-rule="evenodd" d="M127.406 29.3896H139.497V104.772H127.406V29.3896Z" fill="white"/>
<path fill-rule="evenodd" clip-rule="evenodd" d="M162.396 104.772H167.465V35.0286H167.696L195.338 105.922H197.525L225.852 35.0286H226.084V104.772H237.483V29.3896H222.976L200.292 86.1284L177.951 29.3896H162.396V104.772Z" fill="white"/>
<mask id="mask0" mask-type="alpha" maskUnits="userSpaceOnUse" x="0" y="0" width="325" height="157">
<path d="M0 156.624H324.632V0H0" fill="white"/>
</mask>
<g mask="url(#mask0)">
<path fill-rule="evenodd" clip-rule="evenodd" d="M281.913 124.834C291.996 83.9608 305.276 7.1757 302.996 5.36027C301.057 3.8415 298.016 5.20791 296.652 6.93386C295.851 7.582 295.262 8.37282 295.11 9.12092C294.989 9.72553 295.371 10.8477 295.524 11.965C295.676 13.0831 295.598 14.1924 295.598 14.1924C294.614 27.0632 282.633 109.807 278.793 130.774C278.263 133.661 280.206 129.94 280.206 129.94C280.777 127.791 281.312 127.264 281.913 124.834Z" fill="white"/>
<path fill-rule="evenodd" clip-rule="evenodd" d="M311.767 9.5556C313.372 7.93606 317.561 3.36765 318.34 1.55625C319.117 -0.254347 323.525 -1.29105 324.557 3.11291C325.589 7.45076 315.851 65.1851 298.73 141.985C297.611 147.001 296.954 147.052 296.448 148.649C295.835 150.565 294.643 154.097 294.112 154.997C290.786 160.626 292.575 149.961 292.553 148.549C292.497 144.669 306.161 60.5353 311.017 22.2362C312.189 12.989 311.96 12.0224 311.67 11.4242C311.321 10.7027 311.592 9.73134 311.767 9.5556Z" fill="white"/>
</g>
<path fill-rule="evenodd" clip-rule="evenodd" d="M272.17 42.3148C272.17 42.3148 270.682 42.3148 268.736 43.8739C266.791 45.433 263.498 50.1618 263.884 51.346C263.884 51.346 263.78 52.7544 265.959 54.5948C268.139 56.4384 269.172 56.9818 268.963 57.6291C268.755 58.2789 276.111 56.2224 277.146 53.5097C278.188 50.8019 278.702 47.5531 278.188 46.4648C277.669 45.383 276.207 42.1778 272.17 42.3148Z" fill="white"/>
<path fill-rule="evenodd" clip-rule="evenodd" d="M267.801 75.1744C269.841 73.9064 274.065 72.5198 273.967 79.4059C273.855 86.2871 271.122 83.6244 269.238 86.5088C267.337 89.3787 263.34 90.3202 261.056 87.6656C258.762 85.0327 262.712 80.6457 263.196 79.5171C263.694 78.4119 267.801 75.1744 267.801 75.1744Z" fill="white"/>
</svg>
